<?xml version="1.0" standalone="no"?>
<!DOCTYPE svg PUBLIC "-//W3C//DTD SVG 20010904//EN"
 "http://www.w3.org/TR/2001/REC-SVG-20010904/DTD/svg10.dtd">
<svg version="1.0" xmlns="http://www.w3.org/2000/svg"
 width="310.000000pt" height="310.000000pt" viewBox="0 0 310.000000 310.000000"
 preserveAspectRatio="xMidYMid meet">
<metadata>
Created by potrace 1.11, written by Peter Selinger 2001-2013
</metadata>
<g transform="translate(0.000000,310.000000) scale(0.100000,-0.100000)"
fill="#000000" stroke="none">
<path d="M136 3057 c-7 -39 -51 -85 -92 -96 -27 -7 -29 -11 -32 -67 l-3 -59
43 -20 c76 -36 103 -106 67 -176 -16 -33 -68 -69 -98 -69 -7 0 -11 -24 -11
-65 0 -52 3 -65 15 -65 49 0 99 -51 109 -110 9 -63 -45 -140 -100 -140 -23 0
-24 -3 -24 -64 0 -64 0 -64 34 -76 39 -12 70 -43 85 -83 24 -62 -25 -148 -90
-162 -28 -6 -29 -8 -29 -71 0 -61 1 -64 24 -64 31 0 81 -42 94 -78 12 -36 6
-86 -14 -118 -18 -27 -63 -54 -89 -54 -12 0 -15 -13 -15 -64 0 -63 1 -65 29
-71 39 -8 91 -62 92 -94 5 -81 -14 -115 -79 -146 l-42 -19 0 -59 c0 -46 3 -59
17 -63 90 -28 131 -109 95 -184 -17 -34 -65 -70 -94 -70 -15 0 -18 -10 -18
-64 0 -63 0 -65 30 -71 34 -8 90 -58 91 -83 1 -9 2 -30 3 -45 5 -49 -42 -102
-107 -121 -15 -5 -18 -15 -15 -68 3 -60 4 -62 35 -70 37 -10 82 -59 90 -99 5
-28 7 -29 67 -29 l62 0 14 42 c20 56 59 83 118 83 59 0 95 -25 119 -82 l18
-43 59 3 c58 2 60 3 68 33 16 63 89 106 152 90 41 -10 85 -54 92 -92 l6 -34
63 0 c60 0 63 1 68 28 13 65 83 111 152 98 43 -8 90 -55 98 -96 l7 -31 62 3
c59 3 62 4 69 32 17 63 91 108 153 92 40 -10 85 -54 92 -90 l6 -34 64 0 c60 0
64 2 64 23 0 49 73 105 137 105 38 0 101 -53 111 -93 8 -31 10 -32 70 -35 60
-3 61 -3 68 25 11 45 42 81 80 93 72 24 145 -11 165 -80 l12 -38 62 -1 63 0 6
34 c7 37 52 81 92 91 73 18 164 -51 155 -118 0 -3 29 -6 64 -7 62 0 65 1 71
27 11 45 42 80 88 97 l43 17 -1 60 c-2 57 -4 61 -26 65 -97 15 -134 149 -60
216 17 15 43 30 58 33 26 5 27 8 28 70 0 61 -1 64 -24 64 -15 0 -39 15 -63 39
-35 35 -39 44 -39 88 0 44 4 54 35 84 19 19 47 36 62 39 26 5 28 8 29 68 1 34
-1 62 -5 63 -81 10 -127 68 -118 148 6 51 47 98 96 107 27 6 28 8 27 70 -1 47
-5 64 -14 64 -28 0 -78 31 -95 59 -21 36 -22 93 -2 131 16 30 40 48 84 60 23
6 25 11 26 63 l1 58 -40 18 c-57 25 -78 53 -83 108 -6 62 25 111 82 133 40 15
40 16 39 65 -2 73 -2 75 -21 75 -53 1 -103 63 -103 127 0 51 44 108 93 121 31
8 32 9 32 69 1 60 1 61 -28 67 -16 3 -45 22 -63 42 -28 29 -34 43 -34 77 0 23
8 56 19 73 17 27 73 64 99 64 11 0 10 114 -1 117 -57 18 -112 70 -121 114 -5
28 -7 29 -71 29 -59 0 -65 -2 -65 -21 0 -52 -65 -109 -126 -109 -52 0 -111 47
-120 97 l-6 33 -63 0 c-63 0 -63 0 -70 -31 -9 -40 -54 -85 -94 -94 -67 -14
-134 25 -152 89 l-10 36 -62 0 c-56 0 -63 -2 -64 -21 -4 -50 -72 -109 -126
-109 -57 0 -127 60 -127 109 0 19 -6 21 -65 21 -59 0 -65 -2 -65 -21 0 -59
-82 -115 -151 -104 -54 9 -107 71 -100 118 0 4 -28 7 -63 7 l-64 0 -12 -35
c-32 -97 -136 -124 -210 -55 -16 15 -33 42 -36 59 -6 31 -7 31 -70 31 -54 0
-64 -3 -64 -17 0 -26 -35 -80 -61 -94 -83 -44 -163 -5 -193 94 -5 15 -15 18
-68 15 -35 -2 -63 -7 -63 -13 0 -5 -6 -23 -13 -40 -26 -62 -99 -89 -165 -62
-37 16 -77 67 -77 100 0 14 -10 17 -64 17 l-64 0 -6 -33z"/>
</g>
</svg>
